<svg width="1529" height="1434" viewBox="0 0 1529 1434" fill="none" xmlns="http://www.w3.org/2000/svg">
<path d="M720.895 189.957C522.627 380.234 195.358 571.563 56.5072 643.443L65.9744 649.972C338.182 1017.29 569.235 1158.93 1126.86 1292.28C1142.99 1104.19 1178.59 709.783 1191.94 636.874C1205.3 563.966 1226.7 520.133 1235.73 507.33C1114.42 495.106 841.963 290.655 720.895 189.957Z" fill="#F7D6E0" stroke="#7BDFF2" stroke-width="9"/>
<path d="M166.44 805.499C186.547 785.149 231.478 744.303 250.349 743.712C273.938 742.973 364.39 662.011 374.793 644.284C385.196 626.556 549.109 477.818 577.779 453.859C606.449 429.899 716.457 304.725 733.673 294.732M733.673 294.732C743.187 304.128 766.727 327.123 784.77 343.938M733.673 294.732C697.178 258.875 683.209 240.496 680.786 235.789M784.77 343.938C763.245 372.217 706.364 443.896 651.047 504.384C581.899 579.995 470.386 695.021 435.273 723.04C400.16 751.059 236.472 867.762 234.543 884.652M784.77 343.938C794.142 352.672 815.685 368.541 839.371 384.543M1015.89 490.562C1033.04 496.517 1069.52 510.544 1078.27 519.003M1015.89 490.562C1003.61 481.326 983.281 466.732 964.209 454.525M1015.89 490.562C974.159 551.069 933.244 674.694 923.111 701.719C915.005 723.338 843.691 872.079 809.048 943.747L697.368 1157.66M1078.27 519.003C1089.2 529.576 1151.09 553.433 1158.15 554.654M1078.27 519.003C1055.68 594.328 1002.62 761.163 971.089 825.909C931.677 906.84 907.41 1021.3 902.046 1044.93C897.755 1063.83 857.521 1165.86 837.941 1214.51M1158.15 554.654C1163.79 555.63 1187.72 570.189 1198.98 577.347M1158.15 554.654C1142.82 576.881 1069.21 769.061 1061.78 844.116C1054.36 919.17 1029.36 1080.49 1006.16 1136.16C987.594 1180.69 968.27 1243.65 960.928 1269.56M839.371 384.543C826.66 410.02 783.464 480.058 712.364 556.387C641.263 632.715 548.958 763.984 511.693 820.077C484.557 858.253 419.455 944.144 376.139 982.297M839.371 384.543C862.077 399.882 886.753 415.344 904.564 424.758M904.564 424.758C912.889 429.158 919.714 432.237 924.138 433.366C932.847 435.587 948.08 444.202 964.209 454.525M904.564 424.758C894.597 447.432 853.963 517.864 771.169 618.196C667.675 743.612 699.579 672.687 541.077 927.193C532.874 943.199 503.056 986.733 449.406 1032.82M964.209 454.525C943.889 496.321 890.542 599.573 839.71 678.218C776.17 776.523 713.964 860.564 656.626 943.71C610.755 1010.23 571.659 1066.92 557.845 1086.95" stroke="#7BDFF2" stroke-width="9"/>
</svg>
